<mxfile host="app.diagrams.net" agent="Mozilla/5.0 (Windows NT 10.0; Win64; x64) AppleWebKit/537.36 (KHTML, like Gecko) Chrome/129.0.0.0 Safari/537.36" version="24.7.16">
  <diagram id="C5RBs43oDa-KdzZeNtuy" name="Page-1">
    <mxGraphModel dx="1050" dy="522" grid="1" gridSize="10" guides="1" tooltips="1" connect="1" arrows="1" fold="1" page="1" pageScale="1" pageWidth="827" pageHeight="1169" math="0" shadow="0">
      <root>
        <mxCell id="WIyWlLk6GJQsqaUBKTNV-0" />
        <mxCell id="WIyWlLk6GJQsqaUBKTNV-1" parent="WIyWlLk6GJQsqaUBKTNV-0" />
        <mxCell id="WIyWlLk6GJQsqaUBKTNV-4" value="Yes" style="rounded=0;html=1;jettySize=auto;orthogonalLoop=1;fontSize=11;endArrow=block;endFill=0;endSize=8;strokeWidth=1;shadow=0;labelBackgroundColor=none;edgeStyle=orthogonalEdgeStyle;" parent="WIyWlLk6GJQsqaUBKTNV-1" source="WIyWlLk6GJQsqaUBKTNV-6" edge="1">
          <mxGeometry y="20" relative="1" as="geometry">
            <mxPoint as="offset" />
            <mxPoint x="220" y="290" as="targetPoint" />
          </mxGeometry>
        </mxCell>
        <mxCell id="WIyWlLk6GJQsqaUBKTNV-5" value="No" style="edgeStyle=orthogonalEdgeStyle;rounded=0;html=1;jettySize=auto;orthogonalLoop=1;fontSize=11;endArrow=block;endFill=0;endSize=8;strokeWidth=1;shadow=0;labelBackgroundColor=none;" parent="WIyWlLk6GJQsqaUBKTNV-1" source="WIyWlLk6GJQsqaUBKTNV-6" edge="1">
          <mxGeometry y="10" relative="1" as="geometry">
            <mxPoint as="offset" />
            <mxPoint x="320" y="210" as="targetPoint" />
          </mxGeometry>
        </mxCell>
        <mxCell id="WIyWlLk6GJQsqaUBKTNV-8" value="No" style="rounded=0;html=1;jettySize=auto;orthogonalLoop=1;fontSize=11;endArrow=block;endFill=0;endSize=8;strokeWidth=1;shadow=0;labelBackgroundColor=none;edgeStyle=orthogonalEdgeStyle;" parent="WIyWlLk6GJQsqaUBKTNV-1" source="WIyWlLk6GJQsqaUBKTNV-10" edge="1">
          <mxGeometry x="0.3333" y="20" relative="1" as="geometry">
            <mxPoint as="offset" />
            <mxPoint x="220" y="430" as="targetPoint" />
          </mxGeometry>
        </mxCell>
        <mxCell id="WIyWlLk6GJQsqaUBKTNV-9" value="Yes" style="edgeStyle=orthogonalEdgeStyle;rounded=0;html=1;jettySize=auto;orthogonalLoop=1;fontSize=11;endArrow=block;endFill=0;endSize=8;strokeWidth=1;shadow=0;labelBackgroundColor=none;" parent="WIyWlLk6GJQsqaUBKTNV-1" target="WIyWlLk6GJQsqaUBKTNV-12" edge="1">
          <mxGeometry y="10" relative="1" as="geometry">
            <mxPoint as="offset" />
            <mxPoint x="270" y="330" as="sourcePoint" />
          </mxGeometry>
        </mxCell>
        <mxCell id="FOOmTDBDjSgnDDBjIJAy-0" value="Array&amp;lt;{ name: string, length: number, width: number; height: number, weight:number, amount: number }&amp;gt; Device_boxes" style="strokeWidth=2;html=1;shape=mxgraph.flowchart.terminator;whiteSpace=wrap;" vertex="1" parent="WIyWlLk6GJQsqaUBKTNV-1">
          <mxGeometry x="250" y="10" width="260" height="120" as="geometry" />
        </mxCell>
        <mxCell id="FOOmTDBDjSgnDDBjIJAy-2" value="&lt;div&gt;Вопросы:&lt;/div&gt;1 Что делать, если собралась максимальная посылка и остался один пейджер или дисплей?&lt;div&gt;&lt;br&gt;&lt;/div&gt;" style="strokeWidth=2;html=1;shape=mxgraph.flowchart.annotation_2;align=left;labelPosition=right;pointerEvents=1;" vertex="1" parent="WIyWlLk6GJQsqaUBKTNV-1">
          <mxGeometry x="510" y="20" width="120" height="100" as="geometry" />
        </mxCell>
        <mxCell id="FOOmTDBDjSgnDDBjIJAy-4" value="" style="endArrow=classic;html=1;rounded=0;exitX=0.465;exitY=1.013;exitDx=0;exitDy=0;exitPerimeter=0;entryX=0.5;entryY=0;entryDx=0;entryDy=0;" edge="1" parent="WIyWlLk6GJQsqaUBKTNV-1" source="FOOmTDBDjSgnDDBjIJAy-0" target="FOOmTDBDjSgnDDBjIJAy-42">
          <mxGeometry width="50" height="50" relative="1" as="geometry">
            <mxPoint x="400" y="280" as="sourcePoint" />
            <mxPoint x="370.37993920972644" y="200" as="targetPoint" />
          </mxGeometry>
        </mxCell>
        <mxCell id="FOOmTDBDjSgnDDBjIJAy-6" value="Accumulate_volume = Accumulate_volume +&amp;nbsp;length * width * height;&lt;br&gt;&lt;div&gt;&lt;span style=&quot;background-color: initial;&quot;&gt;Accumulate_volume =&amp;nbsp;&lt;/span&gt;&lt;span style=&quot;background-color: initial;&quot;&gt;Accumulate_volume * coefficient;&lt;/span&gt;&lt;/div&gt;&lt;div&gt;Accumulate_weight = Accumulate_weight + weight;&lt;/div&gt;&lt;div&gt;&lt;br&gt;&lt;/div&gt;" style="rounded=0;whiteSpace=wrap;html=1;" vertex="1" parent="WIyWlLk6GJQsqaUBKTNV-1">
          <mxGeometry x="180" y="360" width="400" height="80" as="geometry" />
        </mxCell>
        <mxCell id="FOOmTDBDjSgnDDBjIJAy-8" value="Accumulate_volume &amp;gt;= Max_box_volume" style="rhombus;whiteSpace=wrap;html=1;" vertex="1" parent="WIyWlLk6GJQsqaUBKTNV-1">
          <mxGeometry x="240" y="490" width="250" height="160" as="geometry" />
        </mxCell>
        <mxCell id="FOOmTDBDjSgnDDBjIJAy-9" value="" style="endArrow=classic;html=1;rounded=0;exitX=0.46;exitY=0.995;exitDx=0;exitDy=0;exitPerimeter=0;entryX=0.5;entryY=0;entryDx=0;entryDy=0;" edge="1" parent="WIyWlLk6GJQsqaUBKTNV-1" source="FOOmTDBDjSgnDDBjIJAy-6" target="FOOmTDBDjSgnDDBjIJAy-8">
          <mxGeometry width="50" height="50" relative="1" as="geometry">
            <mxPoint x="390" y="480" as="sourcePoint" />
            <mxPoint x="440" y="430" as="targetPoint" />
          </mxGeometry>
        </mxCell>
        <mxCell id="FOOmTDBDjSgnDDBjIJAy-11" value="" style="endArrow=classic;html=1;rounded=0;exitX=1;exitY=0.5;exitDx=0;exitDy=0;entryX=0.5;entryY=0;entryDx=0;entryDy=0;" edge="1" parent="WIyWlLk6GJQsqaUBKTNV-1">
          <mxGeometry relative="1" as="geometry">
            <mxPoint x="490" y="570" as="sourcePoint" />
            <mxPoint x="760" y="680" as="targetPoint" />
            <Array as="points">
              <mxPoint x="760" y="570" />
            </Array>
          </mxGeometry>
        </mxCell>
        <mxCell id="FOOmTDBDjSgnDDBjIJAy-28" value="NO" style="edgeLabel;html=1;align=center;verticalAlign=middle;resizable=0;points=[];" vertex="1" connectable="0" parent="FOOmTDBDjSgnDDBjIJAy-11">
          <mxGeometry x="-0.2358" relative="1" as="geometry">
            <mxPoint as="offset" />
          </mxGeometry>
        </mxCell>
        <mxCell id="FOOmTDBDjSgnDDBjIJAy-16" value="Accumulate_weight &amp;gt;= Max_Box_weight" style="rhombus;whiteSpace=wrap;html=1;" vertex="1" parent="WIyWlLk6GJQsqaUBKTNV-1">
          <mxGeometry x="635" y="680" width="250" height="160" as="geometry" />
        </mxCell>
        <mxCell id="FOOmTDBDjSgnDDBjIJAy-22" value="Array&amp;lt;length: number, width: number, height: number, weight:number, amount: number&amp;gt; Result . push(Max_box, weight: Accumulate_weight, amount: ++amount)" style="rounded=0;whiteSpace=wrap;html=1;" vertex="1" parent="WIyWlLk6GJQsqaUBKTNV-1">
          <mxGeometry x="242.5" y="700" width="245" height="130" as="geometry" />
        </mxCell>
        <mxCell id="FOOmTDBDjSgnDDBjIJAy-25" value="" style="endArrow=classic;html=1;rounded=0;exitX=0;exitY=0.5;exitDx=0;exitDy=0;" edge="1" parent="WIyWlLk6GJQsqaUBKTNV-1" source="FOOmTDBDjSgnDDBjIJAy-16">
          <mxGeometry relative="1" as="geometry">
            <mxPoint x="310" y="670" as="sourcePoint" />
            <mxPoint x="486" y="760" as="targetPoint" />
          </mxGeometry>
        </mxCell>
        <mxCell id="FOOmTDBDjSgnDDBjIJAy-27" value="YES" style="edgeLabel;html=1;align=center;verticalAlign=middle;resizable=0;points=[];" vertex="1" connectable="0" parent="FOOmTDBDjSgnDDBjIJAy-25">
          <mxGeometry x="-0.0795" relative="1" as="geometry">
            <mxPoint as="offset" />
          </mxGeometry>
        </mxCell>
        <mxCell id="FOOmTDBDjSgnDDBjIJAy-34" value="" style="endArrow=classic;html=1;rounded=0;exitX=1;exitY=0.5;exitDx=0;exitDy=0;" edge="1" parent="WIyWlLk6GJQsqaUBKTNV-1" source="FOOmTDBDjSgnDDBjIJAy-16">
          <mxGeometry relative="1" as="geometry">
            <mxPoint x="920" y="759.5" as="sourcePoint" />
            <mxPoint x="1010" y="833" as="targetPoint" />
            <Array as="points">
              <mxPoint x="1010" y="760" />
            </Array>
          </mxGeometry>
        </mxCell>
        <mxCell id="FOOmTDBDjSgnDDBjIJAy-35" value="NO" style="edgeLabel;resizable=0;html=1;;align=center;verticalAlign=middle;" connectable="0" vertex="1" parent="FOOmTDBDjSgnDDBjIJAy-34">
          <mxGeometry relative="1" as="geometry" />
        </mxCell>
        <mxCell id="FOOmTDBDjSgnDDBjIJAy-36" value="Reduce(Accumulate_length = Accumulate_length + length;&lt;div&gt;Accumulate_width = Accumulate_width + width;&lt;/div&gt;&lt;div&gt;Accumulate_height = Accumulate_height + height;&lt;/div&gt;&lt;div&gt;Accumulate_weight = Accumulate_weight + weight;)&lt;br&gt;&lt;/div&gt;&lt;div&gt;&lt;br&gt;&lt;/div&gt;&lt;div&gt;&lt;br&gt;&lt;/div&gt;&lt;div&gt;Array&amp;lt;length: number, width: number, height: number, weight:number, amount: number&amp;gt; Result . push({ length: Accumulate_length, width: Accumulate_width, height: Accumulate_height, weight: Accumulate_weight, amount: 1)&lt;br&gt;&lt;/div&gt;&lt;div&gt;&lt;div&gt;&lt;div&gt;&lt;br&gt;&lt;/div&gt;&lt;/div&gt;&lt;/div&gt;" style="rounded=0;whiteSpace=wrap;html=1;" vertex="1" parent="WIyWlLk6GJQsqaUBKTNV-1">
          <mxGeometry x="810" y="830" width="400" height="180" as="geometry" />
        </mxCell>
        <mxCell id="FOOmTDBDjSgnDDBjIJAy-37" value="" style="endArrow=classic;html=1;rounded=0;exitX=0.5;exitY=1;exitDx=0;exitDy=0;" edge="1" parent="WIyWlLk6GJQsqaUBKTNV-1">
          <mxGeometry relative="1" as="geometry">
            <mxPoint x="364.5" y="650" as="sourcePoint" />
            <mxPoint x="364.5" y="700" as="targetPoint" />
            <Array as="points" />
          </mxGeometry>
        </mxCell>
        <mxCell id="FOOmTDBDjSgnDDBjIJAy-38" value="ДА" style="edgeLabel;html=1;align=center;verticalAlign=middle;resizable=0;points=[];" vertex="1" connectable="0" parent="FOOmTDBDjSgnDDBjIJAy-37">
          <mxGeometry x="0.04" y="-3" relative="1" as="geometry">
            <mxPoint as="offset" />
          </mxGeometry>
        </mxCell>
        <mxCell id="FOOmTDBDjSgnDDBjIJAy-40" value="" style="endArrow=classic;html=1;rounded=0;exitX=0.5;exitY=1;exitDx=0;exitDy=0;" edge="1" parent="WIyWlLk6GJQsqaUBKTNV-1" source="FOOmTDBDjSgnDDBjIJAy-22">
          <mxGeometry width="50" height="50" relative="1" as="geometry">
            <mxPoint x="540" y="880" as="sourcePoint" />
            <mxPoint x="370" y="160" as="targetPoint" />
            <Array as="points">
              <mxPoint x="365" y="920" />
              <mxPoint x="120" y="920" />
              <mxPoint x="120" y="160" />
            </Array>
          </mxGeometry>
        </mxCell>
        <mxCell id="FOOmTDBDjSgnDDBjIJAy-42" value="Device_boxes.length &amp;gt; 0" style="rhombus;whiteSpace=wrap;html=1;" vertex="1" parent="WIyWlLk6GJQsqaUBKTNV-1">
          <mxGeometry x="292.5" y="190" width="157.5" height="80" as="geometry" />
        </mxCell>
        <mxCell id="FOOmTDBDjSgnDDBjIJAy-44" value="" style="endArrow=classic;html=1;rounded=0;exitX=0.5;exitY=1;exitDx=0;exitDy=0;" edge="1" parent="WIyWlLk6GJQsqaUBKTNV-1" source="FOOmTDBDjSgnDDBjIJAy-42">
          <mxGeometry width="50" height="50" relative="1" as="geometry">
            <mxPoint x="364.5" y="270" as="sourcePoint" />
            <mxPoint x="370" y="357" as="targetPoint" />
          </mxGeometry>
        </mxCell>
        <mxCell id="FOOmTDBDjSgnDDBjIJAy-47" value="END" style="strokeWidth=2;html=1;shape=mxgraph.flowchart.terminator;whiteSpace=wrap;" vertex="1" parent="WIyWlLk6GJQsqaUBKTNV-1">
          <mxGeometry x="960" y="1080" width="100" height="60" as="geometry" />
        </mxCell>
        <mxCell id="FOOmTDBDjSgnDDBjIJAy-48" value="" style="endArrow=classic;html=1;rounded=0;exitX=0.5;exitY=1;exitDx=0;exitDy=0;entryX=0.5;entryY=0;entryDx=0;entryDy=0;entryPerimeter=0;" edge="1" parent="WIyWlLk6GJQsqaUBKTNV-1" source="FOOmTDBDjSgnDDBjIJAy-36" target="FOOmTDBDjSgnDDBjIJAy-47">
          <mxGeometry width="50" height="50" relative="1" as="geometry">
            <mxPoint x="900" y="1050" as="sourcePoint" />
            <mxPoint x="950" y="1000" as="targetPoint" />
          </mxGeometry>
        </mxCell>
      </root>
    </mxGraphModel>
  </diagram>
</mxfile>
